<svg width="1446" height="942" viewBox="0 0 1446 942" fill="none" xmlns="http://www.w3.org/2000/svg">
<path d="M86.5 885.5V558.5C86.5 540.551 71.9493 526 54 526H30.25C13.5434 526 0 512.457 0 495.75C0 479.043 13.5434 465.5 30.25 465.5H91C105.912 465.5 118 453.412 118 438.5C118 423.588 105.912 411.5 91 411.5H56C38.603 411.5 24.5 397.145 24.5 379.748C24.5 362.627 38.3792 348.5 55.5 348.5C72.6208 348.5 86.5 334.621 86.5 317.5V211C86.5 192.222 101.722 177 120.5 177H164.75C180.628 177 193.5 164.128 193.5 148.25C193.5 132.372 180.628 119.5 164.75 119.5H142.5C111.572 119.5 86.5 94.4279 86.5 63.5V56C86.5 25.0721 111.572 0 142.5 0H1318.5C1344.46 0 1365.5 21.0426 1365.5 47V47.5H1422.5C1435.2 47.5 1445.5 57.7975 1445.5 70.5V82C1445.5 94.7025 1435.2 105 1422.5 105H1284.67C1269.39 105 1257 117.389 1257 132.672C1257 146.937 1268.56 158.5 1282.83 158.5H1332.5H1360.6C1387.01 158.5 1408.38 179.987 1408.23 206.396C1408.1 229.687 1388.79 248.5 1365.5 248.5V732.5C1365.5 741.337 1358.34 748.5 1349.5 748.5H1337.5C1327.56 748.5 1319.5 756.559 1319.5 766.5V781.5C1319.5 793.65 1329.35 803.5 1341.5 803.5H1391.5C1410.83 803.5 1426.5 819.17 1426.5 838.5V856.5C1426.5 875.83 1410.83 891.5 1391.5 891.5H1365.5C1365.5 919.114 1343.11 941.5 1315.5 941.5H142.5C111.572 941.5 86.5 916.428 86.5 885.5Z" fill="white"/>
</svg>
